<svg xmlns="http://www.w3.org/2000/svg"><symbol id="facebook" viewBox="0 0 400 400"><title>Facebook</title><path d="M266.333 117h-32.066c-10.25 0-17.934 4.2-17.934 14.817v18.516h50l-3.966 50h-46.034v133.334h-50V200.333H133v-50h33.333v-32.05c0-33.7 17.734-51.283 57.684-51.283h42.316v50z"/><rect x="7.5" y="7.5" width="385" height="385" rx="85"/></symbol><symbol id="instagram" viewBox="0 0 400 400"><title>Instagram</title><rect x="7.5" y="7.5" width="385" height="385" rx="85"/><circle cx="200" cy="200" r="87.5"/><circle cx="320" cy="80" r="20"/></symbol><symbol id="vk" viewBox="0 0 400 400"><title>vk.com</title><rect x="7.5" y="7.5" width="385" height="385" rx="85"/><path d="M321.167 277.5H285.6c-20.083 0-23.483-11.45-40.017-27.983-14.95-14.95-23.25-3.484-22.9 17.8.1 5.65-2.683 10.183-9.433 10.183-21.067 0-51.333 2.967-81.967-30.1C99.9 213.517 67 145.55 67 138.85c0-3.95 3.267-5.733 8.733-5.733H111.9c9.567 0 10.383 4.733 13.05 10.816 11.117 25.35 37.75 76.234 44.833 47.834 4.067-16.3 5.734-54.084-11.716-57.334-9.9-1.833 7.533-12.433 32.8-12.433 6.283 0 13.1.683 20.083 2.283 12.817 2.984 12.85 8.717 12.683 17.1-.65 31.717-4.483 53.067 3.884 58.45 7.983 5.167 28.983-28.616 40.05-54.683 3.05-7.217 3.65-12.033 12.233-12.033h44.233c23.167 0-3.033 33.283-23.05 59.283-16.133 20.917-15.266 21.333 3.484 38.733 13.383 12.4 29.166 29.334 29.166 38.934.034 4.533-3.5 7.433-12.466 7.433z"/></symbol></svg>